<?xml version="1.0" encoding="utf-8" standalone="no"?>
<!DOCTYPE svg PUBLIC "-//W3C//DTD SVG 1.1//EN"
  "http://www.w3.org/Graphics/SVG/1.1/DTD/svg11.dtd">
<svg xmlns:xlink="http://www.w3.org/1999/xlink" width="1080pt" height="720pt" viewBox="0 0 1080 720" xmlns="http://www.w3.org/2000/svg" version="1.1">
 <metadata>
  <rdf:RDF xmlns:dc="http://purl.org/dc/elements/1.1/" xmlns:cc="http://creativecommons.org/ns#" xmlns:rdf="http://www.w3.org/1999/02/22-rdf-syntax-ns#">
   <cc:Work>
    <dc:type rdf:resource="http://purl.org/dc/dcmitype/StillImage"/>
    <dc:date>2025-06-04T22:47:36.882521</dc:date>
    <dc:format>image/svg+xml</dc:format>
    <dc:creator>
     <cc:Agent>
      <dc:title>Matplotlib v3.10.1, https://matplotlib.org/</dc:title>
     </cc:Agent>
    </dc:creator>
   </cc:Work>
  </rdf:RDF>
 </metadata>
 <defs>
  <style type="text/css">*{stroke-linejoin: round; stroke-linecap: butt}</style>
 </defs>
 <g id="figure_1">
  <g id="patch_1">
   <path d="M 0 720 
L 1080 720 
L 1080 0 
L 0 0 
z
" style="fill: #ffffff"/>
  </g>
  <g id="axes_1">
   <g id="patch_2">
    <path d="M 135 640.8 
L 972 640.8 
L 972 86.4 
L 135 86.4 
z
" style="fill: #ffffff"/>
   </g>
   <g id="matplotlib.axis_1">
    <g id="xtick_1">
     <g id="line2d_1">
      <path d="M 173.045455 640.8 
L 173.045455 86.4 
" clip-path="url(#p3a2532ffee)" style="fill: none; stroke: #b0b0b0; stroke-width: 0.8; stroke-linecap: square"/>
     </g>
     <g id="line2d_2">
      <defs>
       <path id="m4d9495a8ea" d="M 0 0 
L 0 3.5 
" style="stroke: #000000; stroke-width: 0.8"/>
      </defs>
      <g>
       <use xlink:href="#m4d9495a8ea" x="173.045455" y="640.8" style="stroke: #000000; stroke-width: 0.8"/>
      </g>
     </g>
     <g id="text_1">
      <!-- 0 -->
      <g transform="translate(163.501705 670.595312) scale(0.3 -0.3)">
       <defs>
        <path id="DejaVuSans-30" d="M 2034 4250 
Q 1547 4250 1301 3770 
Q 1056 3291 1056 2328 
Q 1056 1369 1301 889 
Q 1547 409 2034 409 
Q 2525 409 2770 889 
Q 3016 1369 3016 2328 
Q 3016 3291 2770 3770 
Q 2525 4250 2034 4250 
z
M 2034 4750 
Q 2819 4750 3233 4129 
Q 3647 3509 3647 2328 
Q 3647 1150 3233 529 
Q 2819 -91 2034 -91 
Q 1250 -91 836 529 
Q 422 1150 422 2328 
Q 422 3509 836 4129 
Q 1250 4750 2034 4750 
z
" transform="scale(0.015625)"/>
       </defs>
       <use xlink:href="#DejaVuSans-30"/>
      </g>
     </g>
    </g>
    <g id="xtick_2">
     <g id="line2d_3">
      <path d="M 325.257715 640.8 
L 325.257715 86.4 
" clip-path="url(#p3a2532ffee)" style="fill: none; stroke: #b0b0b0; stroke-width: 0.8; stroke-linecap: square"/>
     </g>
     <g id="line2d_4">
      <g>
       <use xlink:href="#m4d9495a8ea" x="325.257715" y="640.8" style="stroke: #000000; stroke-width: 0.8"/>
      </g>
     </g>
     <g id="text_2">
      <!-- 1000 -->
      <g transform="translate(287.082715 670.595312) scale(0.3 -0.3)">
       <defs>
        <path id="DejaVuSans-31" d="M 794 531 
L 1825 531 
L 1825 4091 
L 703 3866 
L 703 4441 
L 1819 4666 
L 2450 4666 
L 2450 531 
L 3481 531 
L 3481 0 
L 794 0 
L 794 531 
z
" transform="scale(0.015625)"/>
       </defs>
       <use xlink:href="#DejaVuSans-31"/>
       <use xlink:href="#DejaVuSans-30" transform="translate(63.623047 0)"/>
       <use xlink:href="#DejaVuSans-30" transform="translate(127.246094 0)"/>
       <use xlink:href="#DejaVuSans-30" transform="translate(190.869141 0)"/>
      </g>
     </g>
    </g>
    <g id="xtick_3">
     <g id="line2d_5">
      <path d="M 477.469976 640.8 
L 477.469976 86.4 
" clip-path="url(#p3a2532ffee)" style="fill: none; stroke: #b0b0b0; stroke-width: 0.8; stroke-linecap: square"/>
     </g>
     <g id="line2d_6">
      <g>
       <use xlink:href="#m4d9495a8ea" x="477.469976" y="640.8" style="stroke: #000000; stroke-width: 0.8"/>
      </g>
     </g>
     <g id="text_3">
      <!-- 2000 -->
      <g transform="translate(439.294976 670.595312) scale(0.3 -0.3)">
       <defs>
        <path id="DejaVuSans-32" d="M 1228 531 
L 3431 531 
L 3431 0 
L 469 0 
L 469 531 
Q 828 903 1448 1529 
Q 2069 2156 2228 2338 
Q 2531 2678 2651 2914 
Q 2772 3150 2772 3378 
Q 2772 3750 2511 3984 
Q 2250 4219 1831 4219 
Q 1534 4219 1204 4116 
Q 875 4013 500 3803 
L 500 4441 
Q 881 4594 1212 4672 
Q 1544 4750 1819 4750 
Q 2544 4750 2975 4387 
Q 3406 4025 3406 3419 
Q 3406 3131 3298 2873 
Q 3191 2616 2906 2266 
Q 2828 2175 2409 1742 
Q 1991 1309 1228 531 
z
" transform="scale(0.015625)"/>
       </defs>
       <use xlink:href="#DejaVuSans-32"/>
       <use xlink:href="#DejaVuSans-30" transform="translate(63.623047 0)"/>
       <use xlink:href="#DejaVuSans-30" transform="translate(127.246094 0)"/>
       <use xlink:href="#DejaVuSans-30" transform="translate(190.869141 0)"/>
      </g>
     </g>
    </g>
    <g id="xtick_4">
     <g id="line2d_7">
      <path d="M 629.682236 640.8 
L 629.682236 86.4 
" clip-path="url(#p3a2532ffee)" style="fill: none; stroke: #b0b0b0; stroke-width: 0.8; stroke-linecap: square"/>
     </g>
     <g id="line2d_8">
      <g>
       <use xlink:href="#m4d9495a8ea" x="629.682236" y="640.8" style="stroke: #000000; stroke-width: 0.8"/>
      </g>
     </g>
     <g id="text_4">
      <!-- 3000 -->
      <g transform="translate(591.507236 670.595312) scale(0.3 -0.3)">
       <defs>
        <path id="DejaVuSans-33" d="M 2597 2516 
Q 3050 2419 3304 2112 
Q 3559 1806 3559 1356 
Q 3559 666 3084 287 
Q 2609 -91 1734 -91 
Q 1441 -91 1130 -33 
Q 819 25 488 141 
L 488 750 
Q 750 597 1062 519 
Q 1375 441 1716 441 
Q 2309 441 2620 675 
Q 2931 909 2931 1356 
Q 2931 1769 2642 2001 
Q 2353 2234 1838 2234 
L 1294 2234 
L 1294 2753 
L 1863 2753 
Q 2328 2753 2575 2939 
Q 2822 3125 2822 3475 
Q 2822 3834 2567 4026 
Q 2313 4219 1838 4219 
Q 1578 4219 1281 4162 
Q 984 4106 628 3988 
L 628 4550 
Q 988 4650 1302 4700 
Q 1616 4750 1894 4750 
Q 2613 4750 3031 4423 
Q 3450 4097 3450 3541 
Q 3450 3153 3228 2886 
Q 3006 2619 2597 2516 
z
" transform="scale(0.015625)"/>
       </defs>
       <use xlink:href="#DejaVuSans-33"/>
       <use xlink:href="#DejaVuSans-30" transform="translate(63.623047 0)"/>
       <use xlink:href="#DejaVuSans-30" transform="translate(127.246094 0)"/>
       <use xlink:href="#DejaVuSans-30" transform="translate(190.869141 0)"/>
      </g>
     </g>
    </g>
    <g id="xtick_5">
     <g id="line2d_9">
      <path d="M 781.894497 640.8 
L 781.894497 86.4 
" clip-path="url(#p3a2532ffee)" style="fill: none; stroke: #b0b0b0; stroke-width: 0.8; stroke-linecap: square"/>
     </g>
     <g id="line2d_10">
      <g>
       <use xlink:href="#m4d9495a8ea" x="781.894497" y="640.8" style="stroke: #000000; stroke-width: 0.8"/>
      </g>
     </g>
     <g id="text_5">
      <!-- 4000 -->
      <g transform="translate(743.719497 670.595312) scale(0.3 -0.3)">
       <defs>
        <path id="DejaVuSans-34" d="M 2419 4116 
L 825 1625 
L 2419 1625 
L 2419 4116 
z
M 2253 4666 
L 3047 4666 
L 3047 1625 
L 3713 1625 
L 3713 1100 
L 3047 1100 
L 3047 0 
L 2419 0 
L 2419 1100 
L 313 1100 
L 313 1709 
L 2253 4666 
z
" transform="scale(0.015625)"/>
       </defs>
       <use xlink:href="#DejaVuSans-34"/>
       <use xlink:href="#DejaVuSans-30" transform="translate(63.623047 0)"/>
       <use xlink:href="#DejaVuSans-30" transform="translate(127.246094 0)"/>
       <use xlink:href="#DejaVuSans-30" transform="translate(190.869141 0)"/>
      </g>
     </g>
    </g>
    <g id="xtick_6">
     <g id="line2d_11">
      <path d="M 934.106758 640.8 
L 934.106758 86.4 
" clip-path="url(#p3a2532ffee)" style="fill: none; stroke: #b0b0b0; stroke-width: 0.8; stroke-linecap: square"/>
     </g>
     <g id="line2d_12">
      <g>
       <use xlink:href="#m4d9495a8ea" x="934.106758" y="640.8" style="stroke: #000000; stroke-width: 0.8"/>
      </g>
     </g>
     <g id="text_6">
      <!-- 5000 -->
      <g transform="translate(895.931758 670.595312) scale(0.3 -0.3)">
       <defs>
        <path id="DejaVuSans-35" d="M 691 4666 
L 3169 4666 
L 3169 4134 
L 1269 4134 
L 1269 2991 
Q 1406 3038 1543 3061 
Q 1681 3084 1819 3084 
Q 2600 3084 3056 2656 
Q 3513 2228 3513 1497 
Q 3513 744 3044 326 
Q 2575 -91 1722 -91 
Q 1428 -91 1123 -41 
Q 819 9 494 109 
L 494 744 
Q 775 591 1075 516 
Q 1375 441 1709 441 
Q 2250 441 2565 725 
Q 2881 1009 2881 1497 
Q 2881 1984 2565 2268 
Q 2250 2553 1709 2553 
Q 1456 2553 1204 2497 
Q 953 2441 691 2322 
L 691 4666 
z
" transform="scale(0.015625)"/>
       </defs>
       <use xlink:href="#DejaVuSans-35"/>
       <use xlink:href="#DejaVuSans-30" transform="translate(63.623047 0)"/>
       <use xlink:href="#DejaVuSans-30" transform="translate(127.246094 0)"/>
       <use xlink:href="#DejaVuSans-30" transform="translate(190.869141 0)"/>
      </g>
     </g>
    </g>
    <g id="text_7">
     <!-- Number of Traces -->
     <g transform="translate(421.65 703.629688) scale(0.3 -0.3)">
      <defs>
       <path id="DejaVuSans-4e" d="M 628 4666 
L 1478 4666 
L 3547 763 
L 3547 4666 
L 4159 4666 
L 4159 0 
L 3309 0 
L 1241 3903 
L 1241 0 
L 628 0 
L 628 4666 
z
" transform="scale(0.015625)"/>
       <path id="DejaVuSans-75" d="M 544 1381 
L 544 3500 
L 1119 3500 
L 1119 1403 
Q 1119 906 1312 657 
Q 1506 409 1894 409 
Q 2359 409 2629 706 
Q 2900 1003 2900 1516 
L 2900 3500 
L 3475 3500 
L 3475 0 
L 2900 0 
L 2900 538 
Q 2691 219 2414 64 
Q 2138 -91 1772 -91 
Q 1169 -91 856 284 
Q 544 659 544 1381 
z
M 1991 3584 
L 1991 3584 
z
" transform="scale(0.015625)"/>
       <path id="DejaVuSans-6d" d="M 3328 2828 
Q 3544 3216 3844 3400 
Q 4144 3584 4550 3584 
Q 5097 3584 5394 3201 
Q 5691 2819 5691 2113 
L 5691 0 
L 5113 0 
L 5113 2094 
Q 5113 2597 4934 2840 
Q 4756 3084 4391 3084 
Q 3944 3084 3684 2787 
Q 3425 2491 3425 1978 
L 3425 0 
L 2847 0 
L 2847 2094 
Q 2847 2600 2669 2842 
Q 2491 3084 2119 3084 
Q 1678 3084 1418 2786 
Q 1159 2488 1159 1978 
L 1159 0 
L 581 0 
L 581 3500 
L 1159 3500 
L 1159 2956 
Q 1356 3278 1631 3431 
Q 1906 3584 2284 3584 
Q 2666 3584 2933 3390 
Q 3200 3197 3328 2828 
z
" transform="scale(0.015625)"/>
       <path id="DejaVuSans-62" d="M 3116 1747 
Q 3116 2381 2855 2742 
Q 2594 3103 2138 3103 
Q 1681 3103 1420 2742 
Q 1159 2381 1159 1747 
Q 1159 1113 1420 752 
Q 1681 391 2138 391 
Q 2594 391 2855 752 
Q 3116 1113 3116 1747 
z
M 1159 2969 
Q 1341 3281 1617 3432 
Q 1894 3584 2278 3584 
Q 2916 3584 3314 3078 
Q 3713 2572 3713 1747 
Q 3713 922 3314 415 
Q 2916 -91 2278 -91 
Q 1894 -91 1617 61 
Q 1341 213 1159 525 
L 1159 0 
L 581 0 
L 581 4863 
L 1159 4863 
L 1159 2969 
z
" transform="scale(0.015625)"/>
       <path id="DejaVuSans-65" d="M 3597 1894 
L 3597 1613 
L 953 1613 
Q 991 1019 1311 708 
Q 1631 397 2203 397 
Q 2534 397 2845 478 
Q 3156 559 3463 722 
L 3463 178 
Q 3153 47 2828 -22 
Q 2503 -91 2169 -91 
Q 1331 -91 842 396 
Q 353 884 353 1716 
Q 353 2575 817 3079 
Q 1281 3584 2069 3584 
Q 2775 3584 3186 3129 
Q 3597 2675 3597 1894 
z
M 3022 2063 
Q 3016 2534 2758 2815 
Q 2500 3097 2075 3097 
Q 1594 3097 1305 2825 
Q 1016 2553 972 2059 
L 3022 2063 
z
" transform="scale(0.015625)"/>
       <path id="DejaVuSans-72" d="M 2631 2963 
Q 2534 3019 2420 3045 
Q 2306 3072 2169 3072 
Q 1681 3072 1420 2755 
Q 1159 2438 1159 1844 
L 1159 0 
L 581 0 
L 581 3500 
L 1159 3500 
L 1159 2956 
Q 1341 3275 1631 3429 
Q 1922 3584 2338 3584 
Q 2397 3584 2469 3576 
Q 2541 3569 2628 3553 
L 2631 2963 
z
" transform="scale(0.015625)"/>
       <path id="DejaVuSans-20" transform="scale(0.015625)"/>
       <path id="DejaVuSans-6f" d="M 1959 3097 
Q 1497 3097 1228 2736 
Q 959 2375 959 1747 
Q 959 1119 1226 758 
Q 1494 397 1959 397 
Q 2419 397 2687 759 
Q 2956 1122 2956 1747 
Q 2956 2369 2687 2733 
Q 2419 3097 1959 3097 
z
M 1959 3584 
Q 2709 3584 3137 3096 
Q 3566 2609 3566 1747 
Q 3566 888 3137 398 
Q 2709 -91 1959 -91 
Q 1206 -91 779 398 
Q 353 888 353 1747 
Q 353 2609 779 3096 
Q 1206 3584 1959 3584 
z
" transform="scale(0.015625)"/>
       <path id="DejaVuSans-66" d="M 2375 4863 
L 2375 4384 
L 1825 4384 
Q 1516 4384 1395 4259 
Q 1275 4134 1275 3809 
L 1275 3500 
L 2222 3500 
L 2222 3053 
L 1275 3053 
L 1275 0 
L 697 0 
L 697 3053 
L 147 3053 
L 147 3500 
L 697 3500 
L 697 3744 
Q 697 4328 969 4595 
Q 1241 4863 1831 4863 
L 2375 4863 
z
" transform="scale(0.015625)"/>
       <path id="DejaVuSans-54" d="M -19 4666 
L 3928 4666 
L 3928 4134 
L 2272 4134 
L 2272 0 
L 1638 0 
L 1638 4134 
L -19 4134 
L -19 4666 
z
" transform="scale(0.015625)"/>
       <path id="DejaVuSans-61" d="M 2194 1759 
Q 1497 1759 1228 1600 
Q 959 1441 959 1056 
Q 959 750 1161 570 
Q 1363 391 1709 391 
Q 2188 391 2477 730 
Q 2766 1069 2766 1631 
L 2766 1759 
L 2194 1759 
z
M 3341 1997 
L 3341 0 
L 2766 0 
L 2766 531 
Q 2569 213 2275 61 
Q 1981 -91 1556 -91 
Q 1019 -91 701 211 
Q 384 513 384 1019 
Q 384 1609 779 1909 
Q 1175 2209 1959 2209 
L 2766 2209 
L 2766 2266 
Q 2766 2663 2505 2880 
Q 2244 3097 1772 3097 
Q 1472 3097 1187 3025 
Q 903 2953 641 2809 
L 641 3341 
Q 956 3463 1253 3523 
Q 1550 3584 1831 3584 
Q 2591 3584 2966 3190 
Q 3341 2797 3341 1997 
z
" transform="scale(0.015625)"/>
       <path id="DejaVuSans-63" d="M 3122 3366 
L 3122 2828 
Q 2878 2963 2633 3030 
Q 2388 3097 2138 3097 
Q 1578 3097 1268 2742 
Q 959 2388 959 1747 
Q 959 1106 1268 751 
Q 1578 397 2138 397 
Q 2388 397 2633 464 
Q 2878 531 3122 666 
L 3122 134 
Q 2881 22 2623 -34 
Q 2366 -91 2075 -91 
Q 1284 -91 818 406 
Q 353 903 353 1747 
Q 353 2603 823 3093 
Q 1294 3584 2113 3584 
Q 2378 3584 2631 3529 
Q 2884 3475 3122 3366 
z
" transform="scale(0.015625)"/>
       <path id="DejaVuSans-73" d="M 2834 3397 
L 2834 2853 
Q 2591 2978 2328 3040 
Q 2066 3103 1784 3103 
Q 1356 3103 1142 2972 
Q 928 2841 928 2578 
Q 928 2378 1081 2264 
Q 1234 2150 1697 2047 
L 1894 2003 
Q 2506 1872 2764 1633 
Q 3022 1394 3022 966 
Q 3022 478 2636 193 
Q 2250 -91 1575 -91 
Q 1294 -91 989 -36 
Q 684 19 347 128 
L 347 722 
Q 666 556 975 473 
Q 1284 391 1588 391 
Q 1994 391 2212 530 
Q 2431 669 2431 922 
Q 2431 1156 2273 1281 
Q 2116 1406 1581 1522 
L 1381 1569 
Q 847 1681 609 1914 
Q 372 2147 372 2553 
Q 372 3047 722 3315 
Q 1072 3584 1716 3584 
Q 2034 3584 2315 3537 
Q 2597 3491 2834 3397 
z
" transform="scale(0.015625)"/>
      </defs>
      <use xlink:href="#DejaVuSans-4e"/>
      <use xlink:href="#DejaVuSans-75" transform="translate(74.804688 0)"/>
      <use xlink:href="#DejaVuSans-6d" transform="translate(138.183594 0)"/>
      <use xlink:href="#DejaVuSans-62" transform="translate(235.595703 0)"/>
      <use xlink:href="#DejaVuSans-65" transform="translate(299.072266 0)"/>
      <use xlink:href="#DejaVuSans-72" transform="translate(360.595703 0)"/>
      <use xlink:href="#DejaVuSans-20" transform="translate(401.708984 0)"/>
      <use xlink:href="#DejaVuSans-6f" transform="translate(433.496094 0)"/>
      <use xlink:href="#DejaVuSans-66" transform="translate(494.677734 0)"/>
      <use xlink:href="#DejaVuSans-20" transform="translate(529.882812 0)"/>
      <use xlink:href="#DejaVuSans-54" transform="translate(561.669922 0)"/>
      <use xlink:href="#DejaVuSans-72" transform="translate(608.003906 0)"/>
      <use xlink:href="#DejaVuSans-61" transform="translate(649.117188 0)"/>
      <use xlink:href="#DejaVuSans-63" transform="translate(710.396484 0)"/>
      <use xlink:href="#DejaVuSans-65" transform="translate(765.376953 0)"/>
      <use xlink:href="#DejaVuSans-73" transform="translate(826.900391 0)"/>
     </g>
    </g>
   </g>
   <g id="matplotlib.axis_2">
    <g id="ytick_1">
     <g id="line2d_13">
      <path d="M 135 627.278049 
L 972 627.278049 
" clip-path="url(#p3a2532ffee)" style="fill: none; stroke: #b0b0b0; stroke-width: 0.8; stroke-linecap: square"/>
     </g>
     <g id="line2d_14">
      <defs>
       <path id="mbaeb090c79" d="M 0 0 
L -3.5 0 
" style="stroke: #000000; stroke-width: 0.8"/>
      </defs>
      <g>
       <use xlink:href="#mbaeb090c79" x="135" y="627.278049" style="stroke: #000000; stroke-width: 0.8"/>
      </g>
     </g>
     <g id="text_8">
      <!-- 0 -->
      <g transform="translate(108.9125 638.675705) scale(0.3 -0.3)">
       <use xlink:href="#DejaVuSans-30"/>
      </g>
     </g>
    </g>
    <g id="ytick_2">
     <g id="line2d_15">
      <path d="M 135 559.668293 
L 972 559.668293 
" clip-path="url(#p3a2532ffee)" style="fill: none; stroke: #b0b0b0; stroke-width: 0.8; stroke-linecap: square"/>
     </g>
     <g id="line2d_16">
      <g>
       <use xlink:href="#mbaeb090c79" x="135" y="559.668293" style="stroke: #000000; stroke-width: 0.8"/>
      </g>
     </g>
     <g id="text_9">
      <!-- 25 -->
      <g transform="translate(89.825 571.065949) scale(0.3 -0.3)">
       <use xlink:href="#DejaVuSans-32"/>
       <use xlink:href="#DejaVuSans-35" transform="translate(63.623047 0)"/>
      </g>
     </g>
    </g>
    <g id="ytick_3">
     <g id="line2d_17">
      <path d="M 135 492.058537 
L 972 492.058537 
" clip-path="url(#p3a2532ffee)" style="fill: none; stroke: #b0b0b0; stroke-width: 0.8; stroke-linecap: square"/>
     </g>
     <g id="line2d_18">
      <g>
       <use xlink:href="#mbaeb090c79" x="135" y="492.058537" style="stroke: #000000; stroke-width: 0.8"/>
      </g>
     </g>
     <g id="text_10">
      <!-- 50 -->
      <g transform="translate(89.825 503.456193) scale(0.3 -0.3)">
       <use xlink:href="#DejaVuSans-35"/>
       <use xlink:href="#DejaVuSans-30" transform="translate(63.623047 0)"/>
      </g>
     </g>
    </g>
    <g id="ytick_4">
     <g id="line2d_19">
      <path d="M 135 424.44878 
L 972 424.44878 
" clip-path="url(#p3a2532ffee)" style="fill: none; stroke: #b0b0b0; stroke-width: 0.8; stroke-linecap: square"/>
     </g>
     <g id="line2d_20">
      <g>
       <use xlink:href="#mbaeb090c79" x="135" y="424.44878" style="stroke: #000000; stroke-width: 0.8"/>
      </g>
     </g>
     <g id="text_11">
      <!-- 75 -->
      <g transform="translate(89.825 435.846437) scale(0.3 -0.3)">
       <defs>
        <path id="DejaVuSans-37" d="M 525 4666 
L 3525 4666 
L 3525 4397 
L 1831 0 
L 1172 0 
L 2766 4134 
L 525 4134 
L 525 4666 
z
" transform="scale(0.015625)"/>
       </defs>
       <use xlink:href="#DejaVuSans-37"/>
       <use xlink:href="#DejaVuSans-35" transform="translate(63.623047 0)"/>
      </g>
     </g>
    </g>
    <g id="ytick_5">
     <g id="line2d_21">
      <path d="M 135 356.839024 
L 972 356.839024 
" clip-path="url(#p3a2532ffee)" style="fill: none; stroke: #b0b0b0; stroke-width: 0.8; stroke-linecap: square"/>
     </g>
     <g id="line2d_22">
      <g>
       <use xlink:href="#mbaeb090c79" x="135" y="356.839024" style="stroke: #000000; stroke-width: 0.8"/>
      </g>
     </g>
     <g id="text_12">
      <!-- 100 -->
      <g transform="translate(70.7375 368.236681) scale(0.3 -0.3)">
       <use xlink:href="#DejaVuSans-31"/>
       <use xlink:href="#DejaVuSans-30" transform="translate(63.623047 0)"/>
       <use xlink:href="#DejaVuSans-30" transform="translate(127.246094 0)"/>
      </g>
     </g>
    </g>
    <g id="ytick_6">
     <g id="line2d_23">
      <path d="M 135 289.229268 
L 972 289.229268 
" clip-path="url(#p3a2532ffee)" style="fill: none; stroke: #b0b0b0; stroke-width: 0.8; stroke-linecap: square"/>
     </g>
     <g id="line2d_24">
      <g>
       <use xlink:href="#mbaeb090c79" x="135" y="289.229268" style="stroke: #000000; stroke-width: 0.8"/>
      </g>
     </g>
     <g id="text_13">
      <!-- 125 -->
      <g transform="translate(70.7375 300.626925) scale(0.3 -0.3)">
       <use xlink:href="#DejaVuSans-31"/>
       <use xlink:href="#DejaVuSans-32" transform="translate(63.623047 0)"/>
       <use xlink:href="#DejaVuSans-35" transform="translate(127.246094 0)"/>
      </g>
     </g>
    </g>
    <g id="ytick_7">
     <g id="line2d_25">
      <path d="M 135 221.619512 
L 972 221.619512 
" clip-path="url(#p3a2532ffee)" style="fill: none; stroke: #b0b0b0; stroke-width: 0.8; stroke-linecap: square"/>
     </g>
     <g id="line2d_26">
      <g>
       <use xlink:href="#mbaeb090c79" x="135" y="221.619512" style="stroke: #000000; stroke-width: 0.8"/>
      </g>
     </g>
     <g id="text_14">
      <!-- 150 -->
      <g transform="translate(70.7375 233.017168) scale(0.3 -0.3)">
       <use xlink:href="#DejaVuSans-31"/>
       <use xlink:href="#DejaVuSans-35" transform="translate(63.623047 0)"/>
       <use xlink:href="#DejaVuSans-30" transform="translate(127.246094 0)"/>
      </g>
     </g>
    </g>
    <g id="ytick_8">
     <g id="line2d_27">
      <path d="M 135 154.009756 
L 972 154.009756 
" clip-path="url(#p3a2532ffee)" style="fill: none; stroke: #b0b0b0; stroke-width: 0.8; stroke-linecap: square"/>
     </g>
     <g id="line2d_28">
      <g>
       <use xlink:href="#mbaeb090c79" x="135" y="154.009756" style="stroke: #000000; stroke-width: 0.8"/>
      </g>
     </g>
     <g id="text_15">
      <!-- 175 -->
      <g transform="translate(70.7375 165.407412) scale(0.3 -0.3)">
       <use xlink:href="#DejaVuSans-31"/>
       <use xlink:href="#DejaVuSans-37" transform="translate(63.623047 0)"/>
       <use xlink:href="#DejaVuSans-35" transform="translate(127.246094 0)"/>
      </g>
     </g>
    </g>
    <g id="ytick_9">
     <g id="line2d_29">
      <path d="M 135 86.4 
L 972 86.4 
" clip-path="url(#p3a2532ffee)" style="fill: none; stroke: #b0b0b0; stroke-width: 0.8; stroke-linecap: square"/>
     </g>
     <g id="line2d_30">
      <g>
       <use xlink:href="#mbaeb090c79" x="135" y="86.4" style="stroke: #000000; stroke-width: 0.8"/>
      </g>
     </g>
     <g id="text_16">
      <!-- 200 -->
      <g transform="translate(70.7375 97.797656) scale(0.3 -0.3)">
       <use xlink:href="#DejaVuSans-32"/>
       <use xlink:href="#DejaVuSans-30" transform="translate(63.623047 0)"/>
       <use xlink:href="#DejaVuSans-30" transform="translate(127.246094 0)"/>
      </g>
     </g>
    </g>
    <g id="text_17">
     <!-- Guessing Entropy -->
     <g transform="translate(60.498438 495.822656) rotate(-90) scale(0.3 -0.3)">
      <defs>
       <path id="DejaVuSans-47" d="M 3809 666 
L 3809 1919 
L 2778 1919 
L 2778 2438 
L 4434 2438 
L 4434 434 
Q 4069 175 3628 42 
Q 3188 -91 2688 -91 
Q 1594 -91 976 548 
Q 359 1188 359 2328 
Q 359 3472 976 4111 
Q 1594 4750 2688 4750 
Q 3144 4750 3555 4637 
Q 3966 4525 4313 4306 
L 4313 3634 
Q 3963 3931 3569 4081 
Q 3175 4231 2741 4231 
Q 1884 4231 1454 3753 
Q 1025 3275 1025 2328 
Q 1025 1384 1454 906 
Q 1884 428 2741 428 
Q 3075 428 3337 486 
Q 3600 544 3809 666 
z
" transform="scale(0.015625)"/>
       <path id="DejaVuSans-69" d="M 603 3500 
L 1178 3500 
L 1178 0 
L 603 0 
L 603 3500 
z
M 603 4863 
L 1178 4863 
L 1178 4134 
L 603 4134 
L 603 4863 
z
" transform="scale(0.015625)"/>
       <path id="DejaVuSans-6e" d="M 3513 2113 
L 3513 0 
L 2938 0 
L 2938 2094 
Q 2938 2591 2744 2837 
Q 2550 3084 2163 3084 
Q 1697 3084 1428 2787 
Q 1159 2491 1159 1978 
L 1159 0 
L 581 0 
L 581 3500 
L 1159 3500 
L 1159 2956 
Q 1366 3272 1645 3428 
Q 1925 3584 2291 3584 
Q 2894 3584 3203 3211 
Q 3513 2838 3513 2113 
z
" transform="scale(0.015625)"/>
       <path id="DejaVuSans-67" d="M 2906 1791 
Q 2906 2416 2648 2759 
Q 2391 3103 1925 3103 
Q 1463 3103 1205 2759 
Q 947 2416 947 1791 
Q 947 1169 1205 825 
Q 1463 481 1925 481 
Q 2391 481 2648 825 
Q 2906 1169 2906 1791 
z
M 3481 434 
Q 3481 -459 3084 -895 
Q 2688 -1331 1869 -1331 
Q 1566 -1331 1297 -1286 
Q 1028 -1241 775 -1147 
L 775 -588 
Q 1028 -725 1275 -790 
Q 1522 -856 1778 -856 
Q 2344 -856 2625 -561 
Q 2906 -266 2906 331 
L 2906 616 
Q 2728 306 2450 153 
Q 2172 0 1784 0 
Q 1141 0 747 490 
Q 353 981 353 1791 
Q 353 2603 747 3093 
Q 1141 3584 1784 3584 
Q 2172 3584 2450 3431 
Q 2728 3278 2906 2969 
L 2906 3500 
L 3481 3500 
L 3481 434 
z
" transform="scale(0.015625)"/>
       <path id="DejaVuSans-45" d="M 628 4666 
L 3578 4666 
L 3578 4134 
L 1259 4134 
L 1259 2753 
L 3481 2753 
L 3481 2222 
L 1259 2222 
L 1259 531 
L 3634 531 
L 3634 0 
L 628 0 
L 628 4666 
z
" transform="scale(0.015625)"/>
       <path id="DejaVuSans-74" d="M 1172 4494 
L 1172 3500 
L 2356 3500 
L 2356 3053 
L 1172 3053 
L 1172 1153 
Q 1172 725 1289 603 
Q 1406 481 1766 481 
L 2356 481 
L 2356 0 
L 1766 0 
Q 1100 0 847 248 
Q 594 497 594 1153 
L 594 3053 
L 172 3053 
L 172 3500 
L 594 3500 
L 594 4494 
L 1172 4494 
z
" transform="scale(0.015625)"/>
       <path id="DejaVuSans-70" d="M 1159 525 
L 1159 -1331 
L 581 -1331 
L 581 3500 
L 1159 3500 
L 1159 2969 
Q 1341 3281 1617 3432 
Q 1894 3584 2278 3584 
Q 2916 3584 3314 3078 
Q 3713 2572 3713 1747 
Q 3713 922 3314 415 
Q 2916 -91 2278 -91 
Q 1894 -91 1617 61 
Q 1341 213 1159 525 
z
M 3116 1747 
Q 3116 2381 2855 2742 
Q 2594 3103 2138 3103 
Q 1681 3103 1420 2742 
Q 1159 2381 1159 1747 
Q 1159 1113 1420 752 
Q 1681 391 2138 391 
Q 2594 391 2855 752 
Q 3116 1113 3116 1747 
z
" transform="scale(0.015625)"/>
       <path id="DejaVuSans-79" d="M 2059 -325 
Q 1816 -950 1584 -1140 
Q 1353 -1331 966 -1331 
L 506 -1331 
L 506 -850 
L 844 -850 
Q 1081 -850 1212 -737 
Q 1344 -625 1503 -206 
L 1606 56 
L 191 3500 
L 800 3500 
L 1894 763 
L 2988 3500 
L 3597 3500 
L 2059 -325 
z
" transform="scale(0.015625)"/>
      </defs>
      <use xlink:href="#DejaVuSans-47"/>
      <use xlink:href="#DejaVuSans-75" transform="translate(77.490234 0)"/>
      <use xlink:href="#DejaVuSans-65" transform="translate(140.869141 0)"/>
      <use xlink:href="#DejaVuSans-73" transform="translate(202.392578 0)"/>
      <use xlink:href="#DejaVuSans-73" transform="translate(254.492188 0)"/>
      <use xlink:href="#DejaVuSans-69" transform="translate(306.591797 0)"/>
      <use xlink:href="#DejaVuSans-6e" transform="translate(334.375 0)"/>
      <use xlink:href="#DejaVuSans-67" transform="translate(397.753906 0)"/>
      <use xlink:href="#DejaVuSans-20" transform="translate(461.230469 0)"/>
      <use xlink:href="#DejaVuSans-45" transform="translate(493.017578 0)"/>
      <use xlink:href="#DejaVuSans-6e" transform="translate(556.201172 0)"/>
      <use xlink:href="#DejaVuSans-74" transform="translate(619.580078 0)"/>
      <use xlink:href="#DejaVuSans-72" transform="translate(658.789062 0)"/>
      <use xlink:href="#DejaVuSans-6f" transform="translate(697.652344 0)"/>
      <use xlink:href="#DejaVuSans-70" transform="translate(758.833984 0)"/>
      <use xlink:href="#DejaVuSans-79" transform="translate(822.310547 0)"/>
     </g>
    </g>
   </g>
   <g id="line2d_31">
    <path d="M 173.045455 284.226146 
L 173.197667 287.931161 
L 173.502091 324.92722 
L 173.958728 348.266107 
L 174.11094 354.161678 
L 174.415365 374.06599 
L 174.719789 383.477268 
L 174.872002 384.829463 
L 175.024214 379.772254 
L 175.176426 380.150868 
L 175.328638 379.447727 
L 175.480851 385.721912 
L 175.633063 382.557776 
L 175.785275 384.721288 
L 175.937487 382.990478 
L 176.0897 390.562771 
L 176.241912 386.722537 
L 176.546337 395.944507 
L 176.698549 395.89042 
L 177.002973 394.565268 
L 177.45961 419.986537 
L 177.611822 420.419239 
L 178.068459 432.96761 
L 178.220671 434.779551 
L 178.372884 439.295883 
L 178.677308 431.480195 
L 178.82952 437.240546 
L 178.981733 431.72359 
L 179.133945 436.807844 
L 179.286157 434.536156 
L 179.590582 437.294634 
L 180.047219 447.787668 
L 180.199431 446.597737 
L 180.351643 449.924137 
L 180.503855 448.923512 
L 180.80828 457.739824 
L 180.960492 463.554263 
L 181.112704 463.797659 
L 181.264917 467.935376 
L 181.569341 464.473756 
L 182.17819 474.209561 
L 182.330402 476.291941 
L 182.482615 476.156722 
L 182.634827 479.266771 
L 182.787039 478.103883 
L 183.091464 484.161717 
L 183.243676 484.432156 
L 184.15695 491.003824 
L 184.309162 490.219551 
L 184.461374 487.352898 
L 184.765799 487.488117 
L 184.918011 487.136546 
L 185.070223 485.676176 
L 185.222435 486.487493 
L 185.374648 485.459824 
L 185.679072 487.515161 
L 185.831284 486.271141 
L 186.135709 492.274888 
L 186.287921 494.113873 
L 186.440133 497.62958 
L 186.592346 497.467317 
L 187.048983 503.065405 
L 187.201195 501.037112 
L 187.353407 503.876722 
L 187.505619 504.336468 
L 187.657832 503.903766 
L 187.962256 499.414478 
L 188.114468 503.849678 
L 188.418893 502.578615 
L 188.571105 504.4176 
L 188.87553 509.393678 
L 189.027742 509.231415 
L 189.332166 513.585483 
L 189.484379 511.503102 
L 189.636591 515.072898 
L 189.788803 513.017561 
L 190.702077 521.833873 
L 190.854289 522.591102 
L 191.006501 526.052722 
L 191.310926 527.404917 
L 191.61535 531.245151 
L 191.767563 531.136976 
L 192.071987 533.057093 
L 192.224199 532.191688 
L 192.376412 532.27282 
L 192.680836 533.597971 
L 192.985261 532.435083 
L 193.289685 535.518088 
L 193.746322 538.7904 
L 193.898534 538.195434 
L 194.050747 538.384741 
L 194.355171 537.6816 
L 194.507383 539.520585 
L 194.659596 539.547629 
L 194.96402 542.143844 
L 195.116232 540.683473 
L 195.268445 543.036293 
L 195.420657 542.333151 
L 195.572869 543.523083 
L 195.725081 542.819941 
L 195.877294 542.657678 
L 196.181718 542.60359 
L 196.33393 541.49479 
L 196.638355 542.224976 
L 196.790567 541.900449 
L 196.942779 543.009249 
L 197.094992 543.252644 
L 197.247204 542.170888 
L 197.399416 542.60359 
L 197.551629 542.062712 
L 197.856053 545.199805 
L 198.008265 544.307356 
L 198.160478 545.551376 
L 198.464902 542.495415 
L 198.769327 544.631883 
L 198.921539 544.442576 
L 199.225963 544.685971 
L 199.378176 546.038166 
L 199.530388 544.929366 
L 199.834812 546.362693 
L 199.987025 546.200429 
L 200.139237 547.741932 
L 200.291449 546.957659 
L 200.443661 547.768976 
L 200.748086 550.257015 
L 200.900298 551.419902 
L 201.356935 552.123044 
L 201.509147 553.096624 
L 201.965784 552.799141 
L 202.422421 552.150088 
L 202.574633 552.258263 
L 202.879058 550.933112 
L 203.03127 550.608585 
L 203.183482 549.607961 
L 203.335694 551.501034 
L 203.487907 551.338771 
L 203.640119 553.475239 
L 203.792331 553.177756 
L 203.944543 554.773346 
L 204.096756 555.179005 
L 204.248968 555.179005 
L 204.40118 554.259512 
L 204.553392 556.04441 
L 204.705605 555.638751 
L 204.857817 557.50478 
L 205.010029 557.423649 
L 205.162242 558.289054 
L 205.314454 557.612956 
L 205.466666 557.802263 
L 205.618878 559.668293 
L 205.771091 559.803512 
L 206.227727 562.670166 
L 206.37994 562.994693 
L 206.532152 564.184624 
L 206.684364 564.373932 
L 206.836576 562.805385 
L 206.988789 564.076449 
L 207.141001 562.751298 
L 207.293213 563.156956 
L 207.445425 563.075824 
L 207.597638 562.832429 
L 208.206487 565.293424 
L 208.358699 565.050029 
L 208.510911 566.861971 
L 208.663124 566.131785 
L 208.815336 567.592156 
L 209.11976 568.214166 
L 209.271973 568.187122 
L 209.424185 568.673912 
L 209.576397 570.134283 
L 209.728609 569.97202 
L 210.033034 571.08082 
L 210.489671 573.433639 
L 210.641883 572.027356 
L 210.794095 573.325463 
L 210.946307 573.000937 
L 211.09852 572.0544 
L 211.250732 572.027356 
L 211.402944 572.378927 
L 211.555156 572.378927 
L 211.707369 573.433639 
L 212.011793 573.595902 
L 212.316218 572.18962 
L 212.46843 572.0544 
L 212.620642 571.702829 
L 212.925067 572.757541 
L 213.077279 571.838049 
L 213.229491 572.351883 
L 213.381704 573.78521 
L 213.533916 573.29842 
L 213.686128 573.731122 
L 213.990553 575.543063 
L 214.294977 574.89401 
L 214.447189 573.920429 
L 214.751614 578.247454 
L 214.903826 577.814751 
L 215.056038 579.734868 
L 215.208251 579.491473 
L 215.512675 580.951844 
L 215.664888 581.817249 
L 215.8171 581.195239 
L 216.121524 579.32921 
L 216.273737 580.248702 
L 216.425949 580.30279 
L 216.578161 579.924176 
L 216.730373 580.059395 
L 217.034798 581.330459 
L 217.18701 581.276371 
L 217.339222 581.06002 
L 217.491435 581.087063 
L 217.643647 582.628566 
L 218.100284 583.034224 
L 218.252496 584.197112 
L 218.404708 583.115356 
L 218.55692 583.00718 
L 218.709133 582.65561 
L 218.861345 581.979512 
L 219.16577 584.981385 
L 219.317982 584.332332 
L 219.470194 584.467551 
L 219.926831 586.144273 
L 220.079043 587.848039 
L 220.383468 586.766283 
L 220.53568 586.95559 
L 220.840104 587.036722 
L 221.144529 587.44238 
L 221.448953 588.037346 
L 221.601166 587.5776 
L 222.210015 590.146771 
L 222.362227 590.633561 
L 222.514439 590.525385 
L 222.818864 591.823493 
L 222.971076 591.228527 
L 223.123288 591.823493 
L 223.427713 591.985756 
L 223.732137 590.958088 
L 223.88435 591.093307 
L 224.036562 591.688273 
L 224.340986 590.904 
L 224.493199 590.28199 
L 224.645411 590.741737 
L 224.797623 590.606517 
L 225.102048 591.336702 
L 225.25426 590.633561 
L 225.406472 590.958088 
L 226.015321 593.716566 
L 226.167534 593.662478 
L 226.471958 595.690771 
L 226.62417 595.447376 
L 226.776383 595.907122 
L 226.928595 595.880078 
L 227.080807 595.636683 
L 227.233019 596.31278 
L 227.537444 595.853034 
L 227.689656 595.663727 
L 227.841868 595.771902 
L 227.994081 596.069385 
L 228.146293 596.880702 
L 228.450717 597.015922 
L 228.60293 597.746107 
L 228.755142 597.232273 
L 228.907354 597.773151 
L 229.059566 597.827239 
L 229.211779 598.746732 
L 229.363991 598.097678 
L 229.516203 598.124722 
L 229.668416 598.584468 
L 229.97284 600.342322 
L 230.125052 600.315278 
L 230.277265 600.8832 
L 230.581689 600.8832 
L 230.733901 600.829112 
L 230.886114 600.125971 
L 231.190538 601.315902 
L 231.34275 601.478166 
L 231.494963 602.208351 
L 231.647175 602.12722 
L 231.951599 602.722185 
L 232.103812 602.641054 
L 232.256024 602.343571 
L 232.560448 602.803317 
L 232.864873 602.559922 
L 233.169297 603.019668 
L 233.32151 602.505834 
L 233.473722 602.397659 
L 233.625934 602.884449 
L 233.778147 602.938537 
L 233.930359 603.263063 
L 234.082571 603.317151 
L 234.539208 604.34482 
L 234.69142 604.507083 
L 234.843632 603.830985 
L 235.300269 605.237268 
L 235.756906 604.615259 
L 235.909118 604.750478 
L 236.213543 606.373112 
L 236.365755 606.400156 
L 236.517967 606.29198 
L 236.670179 606.508332 
L 236.822392 607.022166 
L 236.974604 607.022166 
L 237.279029 607.454868 
L 237.583453 606.400156 
L 238.344514 607.779395 
L 238.496727 607.590088 
L 238.801151 608.482537 
L 238.953363 608.915239 
L 239.105576 608.563668 
L 239.562212 610.700137 
L 239.866637 610.267434 
L 240.171061 610.673093 
L 240.323274 611.078751 
L 240.627698 611.132839 
L 240.779911 610.889444 
L 241.084335 611.241015 
L 241.236547 611.051707 
L 241.540972 611.105795 
L 241.845396 611.48441 
L 242.149821 610.943532 
L 242.302033 611.241015 
L 242.454245 611.132839 
L 242.606458 611.646673 
L 242.910882 611.83598 
L 243.215307 612.809561 
L 243.367519 612.836605 
L 243.519731 612.187551 
L 243.671943 612.376859 
L 243.824156 612.160507 
L 244.12858 612.160507 
L 244.280793 612.539122 
L 244.433005 612.295727 
L 244.585217 612.295727 
L 244.737429 611.403278 
L 245.041854 612.268683 
L 245.194066 613.025912 
L 245.346278 613.188176 
L 245.650703 612.566166 
L 245.955127 612.836605 
L 246.10734 612.728429 
L 246.259552 613.08 
L 246.411764 612.94478 
L 246.563976 612.430946 
L 246.868401 613.161132 
L 247.020613 613.485659 
L 247.172825 613.350439 
L 247.325038 613.485659 
L 247.47725 613.323395 
L 247.629462 613.756098 
L 247.781675 613.08 
L 247.933887 613.296351 
L 248.086099 613.161132 
L 248.238311 613.593834 
L 248.390524 613.025912 
L 248.84716 613.674966 
L 248.999373 613.485659 
L 249.151585 613.56679 
L 249.456009 613.972449 
L 249.608222 614.107668 
L 249.760434 614.729678 
L 249.912646 614.513327 
L 250.217071 615.108293 
L 250.369283 615.405776 
L 250.521495 614.837854 
L 250.82592 615.189424 
L 250.978132 615.135337 
L 251.130344 614.891941 
L 251.434769 615.568039 
L 251.586981 616.027785 
L 252.043618 615.351688 
L 252.348042 614.918985 
L 252.804679 615.838478 
L 252.956891 615.676215 
L 253.413528 616.54162 
L 253.56574 616.514576 
L 254.022377 614.918985 
L 254.326802 615.405776 
L 254.479014 615.568039 
L 254.783439 615.000117 
L 254.935651 615.676215 
L 255.240075 615.43282 
L 255.392288 615.865522 
L 255.5445 615.838478 
L 255.696712 616.000741 
L 255.848924 615.946654 
L 256.153349 616.595707 
L 256.305561 616.4064 
L 256.609986 616.947278 
L 256.762198 616.947278 
L 256.91441 617.082498 
L 257.066622 617.623376 
L 257.523259 617.542244 
L 257.827684 617.920859 
L 257.979896 618.029034 
L 258.284321 617.947902 
L 258.436533 617.974946 
L 258.588745 618.164254 
L 258.89317 617.839727 
L 259.045382 617.758595 
L 259.197594 617.947902 
L 259.349806 618.353561 
L 260.110868 617.920859 
L 260.26308 618.299473 
L 260.415292 617.947902 
L 260.719717 617.893815 
L 260.871929 618.164254 
L 261.024141 618.164254 
L 261.63299 617.298849 
L 261.785202 617.37998 
L 261.937415 617.920859 
L 262.089627 618.029034 
L 262.241839 617.866771 
L 262.394052 618.218341 
L 262.546264 618.272429 
L 262.698476 618.00199 
L 262.850688 618.029034 
L 263.002901 618.299473 
L 263.155113 618.056078 
L 263.307325 618.542868 
L 263.459537 618.407649 
L 263.763962 618.948527 
L 263.916174 618.624 
L 264.372811 618.786263 
L 264.525023 619.029659 
L 264.829448 618.75922 
L 264.98166 618.921483 
L 265.133872 619.273054 
L 265.286084 619.273054 
L 265.438297 619.786888 
L 265.894934 619.651668 
L 266.047146 619.813932 
L 266.199358 619.462361 
L 266.35157 619.624624 
L 266.503783 619.516449 
L 266.655995 619.705756 
L 266.960419 619.435317 
L 267.112632 619.922107 
L 267.264844 619.949151 
L 267.569268 620.21959 
L 267.721481 620.300722 
L 267.873693 620.652293 
L 268.33033 620.35481 
L 268.482542 620.435941 
L 268.634754 620.679337 
L 269.243603 620.679337 
L 269.395816 620.273678 
L 270.461301 619.7328 
L 270.613514 619.86802 
L 270.765726 619.813932 
L 271.07015 620.111415 
L 271.222363 620.192546 
L 271.374575 620.408898 
L 271.526787 620.057327 
L 271.678999 620.381854 
L 272.592273 620.598205 
L 272.896698 621.112039 
L 273.04891 620.97682 
L 274.114396 621.112039 
L 274.266608 621.32839 
L 274.723245 621.139083 
L 274.875457 621.517698 
L 275.179881 621.517698 
L 275.484306 621.301346 
L 276.093155 621.220215 
L 276.39758 621.490654 
L 276.854216 621.355434 
L 277.006429 621.544741 
L 277.310853 621.490654 
L 277.463065 621.652917 
L 277.615278 621.46361 
L 278.071914 621.923356 
L 278.680763 621.81518 
L 279.1374 622.383102 
L 279.594037 622.031532 
L 279.746249 621.923356 
L 279.898462 622.274927 
L 280.355098 622.383102 
L 280.659523 622.464234 
L 280.811735 622.356059 
L 281.11616 622.57241 
L 281.268372 622.491278 
L 281.572796 622.761717 
L 282.029433 622.653541 
L 282.333858 622.815805 
L 282.638282 622.518322 
L 283.399344 622.680585 
L 283.85598 623.0592 
L 284.008193 622.978068 
L 284.464829 623.248507 
L 285.073678 623.032156 
L 285.225891 623.302595 
L 285.378103 623.275551 
L 285.530315 623.410771 
L 285.682527 623.735298 
L 285.986952 623.735298 
L 286.139164 623.978693 
L 286.291376 623.870517 
L 286.443589 624.005737 
L 286.748013 623.68121 
L 286.900225 623.654166 
L 287.052438 623.924605 
L 287.20465 623.708254 
L 287.509075 624.005737 
L 287.661287 623.978693 
L 287.965711 624.168 
L 288.57456 624.113912 
L 288.726773 624.330263 
L 288.878985 624.222088 
L 289.487834 624.438439 
L 290.096683 624.65479 
L 290.248895 624.492527 
L 290.55332 624.681834 
L 291.009957 624.600702 
L 291.314381 624.65479 
L 291.771018 624.681834 
L 291.92323 624.817054 
L 292.379867 624.844098 
L 292.836504 624.871141 
L 292.988716 624.600702 
L 293.597565 624.600702 
L 293.749777 624.573659 
L 293.901989 624.357307 
L 294.206414 624.438439 
L 294.663051 624.573659 
L 294.815263 624.384351 
L 295.424112 624.600702 
L 295.728537 624.65479 
L 295.880749 624.817054 
L 296.032961 624.762966 
L 296.185173 624.844098 
L 296.337386 624.762966 
L 296.794022 624.898185 
L 297.859508 624.492527 
L 298.163933 624.844098 
L 298.772782 624.898185 
L 298.924994 624.844098 
L 299.381631 625.006361 
L 299.838268 625.006361 
L 299.99048 624.871141 
L 300.142692 625.033405 
L 300.294904 624.952273 
L 301.512603 625.303844 
L 301.664815 625.2768 
L 301.817027 625.439063 
L 302.273664 625.384976 
L 302.730301 625.384976 
L 303.33915 625.574283 
L 303.643574 625.574283 
L 303.795786 625.682459 
L 303.947999 625.628371 
L 304.100211 625.76359 
L 304.404635 625.790634 
L 305.165697 626.006985 
L 305.470121 625.871766 
L 305.774546 625.979941 
L 306.07897 625.844722 
L 306.840032 625.790634 
L 306.992244 625.628371 
L 307.296668 625.790634 
L 307.601093 625.844722 
L 308.209942 625.89881 
L 308.666579 625.817678 
L 309.123216 625.952898 
L 309.275428 625.952898 
L 309.579852 626.115161 
L 310.340914 626.115161 
L 310.493126 625.979941 
L 310.79755 626.169249 
L 311.406399 626.006985 
L 311.863036 626.142205 
L 312.167461 626.006985 
L 312.471885 626.115161 
L 312.624098 625.925854 
L 312.928522 625.952898 
L 313.080734 625.925854 
L 313.385159 626.006985 
L 313.689583 626.034029 
L 313.841796 626.142205 
L 314.14622 626.006985 
L 315.059494 626.142205 
L 315.211706 626.034029 
L 315.668343 626.142205 
L 315.820555 626.061073 
L 316.581616 626.331512 
L 316.886041 626.277424 
L 318.408163 626.439688 
L 320.234711 626.493776 
L 320.386923 626.574907 
L 320.539135 626.52082 
L 320.691347 626.601951 
L 320.995772 626.52082 
L 321.147984 626.601951 
L 321.604621 626.412644 
L 322.061258 626.493776 
L 322.517894 626.439688 
L 322.974531 626.412644 
L 325.56214 626.52082 
L 326.018776 626.52082 
L 326.93205 626.466732 
L 327.693111 626.52082 
L 328.149748 626.547863 
L 329.824083 626.439688 
L 330.432932 626.439688 
L 330.737357 626.493776 
L 331.346206 626.601951 
L 331.955055 626.574907 
L 332.411691 626.628995 
L 333.324965 626.710127 
L 333.933814 626.683083 
L 334.238239 626.764215 
L 334.390451 626.683083 
L 334.694875 626.737171 
L 345.501946 626.791259 
L 345.654158 626.926478 
L 346.263007 626.899434 
L 346.871856 626.926478 
L 347.176281 626.87239 
L 348.089554 626.926478 
L 351.133799 626.87239 
L 351.438224 626.791259 
L 356.461229 626.87239 
L 356.917865 626.926478 
L 357.983351 626.818302 
L 358.5922 626.845346 
L 359.201049 626.845346 
L 359.657686 626.899434 
L 363.006356 627.00761 
L 363.462993 626.980566 
L 384.011648 627.088741 
L 384.620497 627.088741 
L 384.924921 627.034654 
L 385.53377 627.034654 
L 388.425803 627.142829 
L 389.186865 627.169873 
L 396.645265 627.061698 
L 397.254114 627.061698 
L 399.993935 627.169873 
L 400.754996 627.196917 
L 933.954545 627.278049 
L 933.954545 627.278049 
" clip-path="url(#p3a2532ffee)" style="fill: none; stroke: #1f77b4; stroke-width: 1.5; stroke-linecap: square"/>
   </g>
   <g id="patch_3">
    <path d="M 135 640.8 
L 135 86.4 
" style="fill: none; stroke: #000000; stroke-width: 0.8; stroke-linejoin: miter; stroke-linecap: square"/>
   </g>
   <g id="patch_4">
    <path d="M 972 640.8 
L 972 86.4 
" style="fill: none; stroke: #000000; stroke-width: 0.8; stroke-linejoin: miter; stroke-linecap: square"/>
   </g>
   <g id="patch_5">
    <path d="M 135 640.8 
L 972 640.8 
" style="fill: none; stroke: #000000; stroke-width: 0.8; stroke-linejoin: miter; stroke-linecap: square"/>
   </g>
   <g id="patch_6">
    <path d="M 135 86.4 
L 972 86.4 
" style="fill: none; stroke: #000000; stroke-width: 0.8; stroke-linejoin: miter; stroke-linecap: square"/>
   </g>
  </g>
 </g>
 <defs>
  <clipPath id="p3a2532ffee">
   <rect x="135" y="86.4" width="837" height="554.4"/>
  </clipPath>
 </defs>
</svg>
